<svg version="1" xmlns="http://www.w3.org/2000/svg" width="400" height="400" viewBox="0 0 300.000000 300.000000"><path d="M121.4 5.8c-.6.4-1.4 1.7-1.8 2.9-.7 2.1-1.3 2.3-8.5 2.3-7.9 0-10.1.9-10.1 4.1 0 2.1-2 2.9-7.6 2.9-4.1 0-4.5.2-5 3-.5 2.3-1.2 3-3 3-1.9 0-2.4.5-2.4 2.5s-.6 2.7-2.8 3.1c-2 .4-3.2 1.5-4 3.6-.6 1.6-2 3.2-3.1 3.5-1.1.3-2.4 1.8-3 3.4-.7 1.9-1.7 2.9-3 2.9-1.2 0-2.2.4-2.2 1-.1.5-.3 1.4-.4 2-.1.5-.3 1.4-.4 2 0 .5-1.2 1-2.6 1-2.2 0-2.4.4-2.7 5.7-.3 5.5-.4 5.7-3.6 6.5-2.5.7-3.2 1.4-3.2 3.3 0 1.8-.6 2.4-2.7 2.7-2.8.3-2.8.4-3.3 8.8-.5 8-.6 8.4-3 9-2.4.6-2.5 1-3 8.9-.5 8.5-.8 9.1-5.3 10.5-1.5.5-1.7 2.1-1.7 15v14.5l-2.7.3-2.8.3-.5 12-.5 12-5 .5c-4.2.4-5 .8-5.3 2.7-.3 2.3.9 2.9 7.3 3.5 2.2.2 3.1.9 3.5 2.8.3 1.4 1.4 2.6 2.5 2.9 5.4.9 5.9 4.5.9 6.6-2.5 1-3.5 2-3.2 3.2.2 1.4 1.5 1.9 6.1 2.1 6.3.3 6.4.5 6.9 8.7.3 3.2.7 4 2.8 4.5 1.5.4 2.6 1.5 3 3 .3 1.5 1.4 2.6 2.6 2.8 1.2.2 2.5 1.6 3.1 3.3.9 2.4 1.7 3 3.5 2.7 2.1-.3 2.3-.8 2.3-5.8 0-4.7-.3-5.5-2-5.8-3.4-.7-4.5-2.3-4.4-6.6.1-8.3 1.2-12 3.9-12.6l2.5-.6.3-29.8.2-29.7 3-1c2.6-1 2.9-1.5 3.2-6.2l.3-5.2 4.7-.5c2.7-.3 5.3-1.1 5.9-1.7 1.7-1.7.6-4.8-1.9-5.1-4.4-.6-3.5-6.2.9-6.2 1.6 0 1.9-.8 1.9-4.3 0-4.9.8-6.4 4.1-8.1 1.3-.6 2.5-2.1 2.7-3.3.2-1.4 1.2-2.3 2.5-2.5 1.7-.2 2.3-1.1 2.5-3.8.5-6.7 1.1-8 3.6-8 1.8 0 2.7-.8 3.4-3 .7-1.9 2-3.2 3.6-3.6 1.6-.4 2.8-1.5 3.2-2.9.3-1.3 1.6-2.6 2.9-2.9 1.5-.4 2.5-1.5 2.7-2.9.3-2.1.7-2.2 12-2.5l11.7-.3.7 2.5c.3 1.5 1.4 2.6 2.7 2.8 1.2.2 2.7 1.5 3.4 2.9.7 1.5 2.4 3 3.7 3.3 1.6.4 2.5 1.5 2.9 3.6.5 2.4 1.2 3 3.1 3 1.9 0 2.5.6 2.8 2.7.2 2.2.9 2.9 3.1 3.1 2.1.3 2.7.9 2.7 2.8s.6 2.6 3 3c2.7.6 3 1.1 3 4.3 0 5.3 1 8.1 2.9 8.1 2.2 0 4.1 1.9 4.1 4.2 0 1.2.8 1.8 2.4 1.8 1.4 0 2.5.7 2.8 1.7.8 2.9-.2 4.3-2.8 4.3-2.2 0-2.5.4-2.2 3.2.3 3.2.4 3.3 5.6 3.6l5.2.3v16l3.5 2 3.5 2.1-.2 47.7-.3 47.6-8.5.5c-7.5.4-8.5.7-8.8 2.5-.9 4.5-.4 4.5-40.9 4.5H89.9l-1.4-3.4c-1.4-3.3-1.8-3.5-6.7-3.8-4.6-.3-5.3-.6-5.6-2.5-.4-2.6-3.1-3.6-8.3-3.1-2.9.2-3.4.7-3.4 2.8 0 1.8.7 2.6 2.5 3 2.2.5 2.5 1.2 2.8 5.4.3 4.6-.6 6.9-2.9 7.2-.5.1-1.3.2-1.9.3-.5 0-1.1 4-1.2 8.8l-.3 8.8-5.5.5c-4.7.4-5.5.8-5.8 2.6-.2 1.6.4 2.4 2.7 3.2 2.8 1 3.1 1.5 3.1 5.1 0 6.8.3 7.1 8.9 7.1 4.7 0 8.2.5 8.9 1.2.7.7 1.2 3.4 1.2 6v4.8h7.4c10.9 0 10.6-.3 10.6 10.1v8.9h55c52.3 0 55-.1 55-1.8 0-2.9 2.1-4.2 7-4.2 4.1 0 4.7-.3 5.6-2.9.9-2.3 1.9-2.9 5-3.3 5-.6 6.3-.1 7.5 2.9.5 1.3 2 2.8 3.4 3.3 1.8.7 2.5 1.7 2.5 3.5v2.5h15.5c14.3 0 15.5-.1 15.5-1.8 0-2.3-1.9-4.2-4.2-4.2-1 0-2-1-2.4-2.5-.3-1.4-1.8-3.1-3.3-3.8l-2.6-1.2v-58.9l2.5-1.3c1.5-.7 2.7-2.4 3-4 .5-2.6.9-2.8 5.8-3.1 3.7-.2 5.5-.8 5.9-1.9 1-2.6-2.6-4.3-8.8-4.3-7.1 0-8.9.7-8.9 3.2 0 1.2-1 2.3-2.9 2.9-1.8.6-3.2 2-3.5 3.5-.4 1.4-1.6 2.6-3 3-1.5.3-2.9 1.7-3.5 3.5-.7 1.9-1.7 2.9-3.1 2.9-1.5 0-2.2.8-2.6 2.9-.5 2.3-1.2 3.1-3.3 3.3-1.8.2-2.7 1-2.9 2.5-.2 1.5-1.3 2.5-2.9 2.9-1.5.4-2.9 1.7-3.4 3.3-.5 1.5-1.9 3.1-3.2 3.6-1.2.6-2.3 2-2.5 3.3-.3 1.7-.9 2.2-2.5 2-1.6-.2-2.3-1.3-3-4.6-.4-2.3-1.3-4.2-2-4.2-.6 0-2.3-1.2-3.8-2.6-2.4-2.3-2.6-2.9-1.7-5.7 1.7-5.2 2.4-6.2 4.6-6.5 1.2-.2 2.2-1.2 2.4-2.5.2-1.2 1.5-2.7 2.9-3.4 1.5-.7 3-2.4 3.3-3.7.4-1.5 1.5-2.6 2.8-2.8 1.9-.2 2.4-1.3 3.3-5.8.9-4.6 1.4-5.5 3.5-6 1.5-.4 2.6-1.4 2.8-2.7.7-4.9 7.2-5.6 7.2-.7 0 2.8 2.8 4.4 4.1 2.3.5-.8.8-3.4.7-5.9l-.3-4.5-5.5-.5-5.5-.5-.3-18.1-.2-18.2 2.9-1c2.7-1 3-1.5 3.3-5.9.3-4.1.6-4.8 2.6-5.1 1.5-.2 2.7-1.5 3.7-3.9 1.1-2.5 1.9-3.3 3.1-2.9.8.3 1.8.6 2 .6.2 0 .4.8.4 1.8s.5 2.3 1.2 3c.7.7 2 1.2 3 1.2 1.1 0 1.8.7 1.8 1.8 0 2.3 1.9 4.2 4.3 4.2 2.8 0 1.9 5.4-1 5.8-1.3.2-2.4 1.3-2.7 2.7-.3 1.3-1.8 3-3.4 3.7-2.6 1.3-2.7 1.6-2.7 9.3 0 7.5.1 8 2.5 9.2 1.4.7 2.7 2.3 3 3.5.5 2.1 1.2 2.3 6.5 2.3s6-.2 6.5-2.3c.3-1.2 1.6-2.8 3-3.5 1.3-.7 2.7-2.3 3-3.7.4-1.8 1.4-2.6 3.3-2.8l2.7-.3-.2-42.7-.3-42.7-2.7-.3c-2.6-.3-2.8-.7-2.8-4.5 0-5.1-.7-6.2-4.2-7.1-2.5-.6-2.7-1.1-3-6.4-.3-5.4-.5-5.7-3-6-2.5-.3-2.7-.7-3-6-.3-5.1-.5-5.7-2.8-6.2-1.8-.4-2.6-1.4-2.8-3.2-.2-2.1-.9-2.8-3-3-1.8-.2-2.8-1-3.2-2.8-.3-1.4-1.4-2.6-2.5-2.9-2.8-.5-4.5-2.1-4.5-4.2 0-1.2-.7-1.9-2.1-1.9-1.3 0-2.5-1.1-3.5-3.5-.9-2.2-2.1-3.5-3.3-3.5-1.2 0-2.3-1.1-3-3-.7-2.3-1.6-3-3.5-3-2.1 0-2.6-.5-2.6-2.4 0-2.7-1.6-3.6-6.6-3.6-3.1 0-3.7-.5-5-3.5L210 11h-8.5c-8.3 0-8.5-.1-8.5-2.4 0-1.3-.7-2.7-1.6-3-2.3-.9-68.7-.7-70 .2zm27 226.8c1.9.7 2.1 5 .4 5.6-.7.2-7.5.2-15 0-13.8-.4-13.8-.4-13.8-2.7 0-2.4.1-2.4 12.8-2.8 7-.1 13-.4 13.4-.5.3-.1 1.3.1 2.2.4z"/><path d="M77.2 91.9c-.8.4-1.2 1.7-1 2.7.3 1.6 1.4 2 6.1 2.2l5.8.3-.3-2.8c-.3-2.6-.7-2.8-4.8-3.1-2.5-.1-5.1.2-5.8.7zM157 92.5c-2.4 2.9-.4 4.5 5.4 4.5 5.6 0 7.2-1.2 6-4.5-.8-2.1-9.7-2.1-11.4 0zM77 123.5c-1.6 2-1 37.5.7 39.6.8 1 2.6 1.3 5.6 1.1 4.5-.4 4.5-.4 5.1-4.9.7-5.3.3-6.3-2.9-6.3-1.5 0-2.6-.7-3-2-.8-2.5.1-4 2.5-4 1.1 0 2.3-.8 2.8-1.8 1-1.9.7-20.5-.3-22.2-1-1.6-9.1-1.2-10.5.5zM157.3 122.7c-1 .3-1.3 5.2-1.3 19.3 0 10.4.3 19.5.6 20.4.5 1.2 2 1.6 5.9 1.6h5.2l.6-4.1c.7-5.4.1-6.7-3.1-7.1-4.1-.5-4.3-4.5-.3-5.9 1.7-.6 3.1-1.6 3.2-2.2.3-4.2-.1-20.9-.6-21.7-.6-1-8-1.2-10.2-.3zM113.4 160.4c-.3.7-.4 3.3-.2 5.7.3 3.9.6 4.4 2.9 4.7 2.5.3 2.7 0 3-4.1.2-2.4.3-5.1.1-6-.4-2.1-5-2.3-5.8-.3zM9 168c0 2.7 2.7 3.7 4.7 1.7 2-1.9.9-3.7-2.3-3.7-1.7 0-2.4.5-2.4 2zM4.3 171.7c-1 .3-1.3 3.6-1.3 11.9V195h5v-11.4c0-11.4-.5-13-3.7-11.9zM21.4 186.4c-.3 1.3-.4 3.7-.2 5.2.3 2.8.5 2.9 5.8 2.9 4.8 0 5.5-.3 5.5-2 0-1.2-.9-2.1-2.5-2.5-1.8-.4-2.6-1.4-2.8-3.3-.4-3.6-4.9-3.9-5.8-.3zM291.2 188.2c-1.1 4 .1 6.8 2.8 6.8 3.9 0 4.1-9.3.3-9.8-1.8-.3-2.4.3-3.1 3zM107.7 190.6c-.4.4-.7 1.6-.7 2.6 0 1.3.8 1.8 3.1 1.8 2.6 0 3-.3 2.7-2.3-.3-2.2-3.6-3.6-5.1-2.1zM138 192.4c0 2.2.4 2.6 3.1 2.6 2.6 0 3-.3 2.7-2.3-.2-1.6-1.1-2.3-3-2.5-2.4-.3-2.8 0-2.8 2.2zM285.2 196.2c-1.8 1.8-1.5 3.6.9 4.3 2.5.8 4.2-.6 3.7-3.1-.4-2.3-2.9-2.9-4.6-1.2zM9.7 196.6c-.4.4-.7 2.7-.7 5 0 3.3.5 4.6 2 5.4 2.5 1.4 4.2-1.6 3.8-6.8-.2-2.8-.8-3.8-2.3-4-1.2-.2-2.4 0-2.8.4zM113.2 198.2c.3 2.2.7 2.3 12.1 2.6l11.7.3V196h-12.1c-11.9 0-12 0-11.7 2.2zM278.5 203.1c-.5 1.4-.2 2.5.6 3 2.4 1.5 4.4.5 4.4-2.1 0-3.4-4-4.1-5-.9zM273 208.5c-1.8 2.1-.5 4.7 2.2 4.3 2.6-.3 3.7-3.6 1.6-4.9-1.8-1.2-2.4-1.1-3.8.6zM16.2 211.2c.2 1.5 1 2.3 2.3 2.3 1.3 0 2.1-.8 2.3-2.3.3-1.8-.1-2.2-2.3-2.2-2.2 0-2.6.4-2.3 2.2zM58.5 210c-.8 1.3 1.3 4 3 4 1.5 0 2.8-2.7 1.9-4.1-.7-1.2-4.1-1.1-4.9.1zM231 211.5c0 2.2.4 2.6 2.3 2.3 1.4-.2 2.2-1 2.2-2.3 0-1.3-.8-2.1-2.2-2.3-1.9-.3-2.3.1-2.3 2.3zM22 216.5c-1.4 3.6-1.3 5.8.4 8 .8 1.1 1.9 1.6 3 1.2 2.5-1 1.9-11-.6-11.5-1.2-.2-2.1.6-2.8 2.3zM27.6 227.9c-1.1 1.8.6 4.2 2.8 3.9 2.9-.4 2.9-4.2-.1-4.6-1.1-.2-2.4.1-2.7.7zM34 235.5c0 2 .5 2.5 2.5 2.5s2.5-.5 2.5-2.5-.5-2.5-2.5-2.5-2.5.5-2.5 2.5zM40.4 240.5c-.8 2 .4 3.5 2.6 3.5 2.3 0 3.2-1.3 2.4-3.4-.8-2-4.3-2.1-5-.1zM46 247.4c0 2.4 2.3 4.1 4.1 3 .5-.3.9-1.6.9-3 0-1.9-.5-2.4-2.5-2.4s-2.5.5-2.5 2.4z"/></svg>